STARTFONT 2.1
COMMENT Source: 
COMMENT -Misc-Fixed-Medium-R-Normal--20-200-75-75-C-100-ISO10646-1 $ucs-fonts: 10x20.bdf,v 1.91 2009-04-06 19:10:19+01 mgk25 Rel $
FONT -dylex-terminal-Bold-O-Normal--20-200-75-75-C-100-ISO10646-1
SIZE 20 75 75
FONTBOUNDINGBOX 14 20 0 -4
STARTPROPERTIES 22
FONTNAME_REGISTRY ""
FOUNDRY "dylex"
FAMILY_NAME "terminal"
WEIGHT_NAME "Bold"
SLANT "O"
SETWIDTH_NAME "Normal"
ADD_STYLE_NAME ""
PIXEL_SIZE 20
POINT_SIZE 200
RESOLUTION_X 75
RESOLUTION_Y 75
SPACING "C"
AVERAGE_WIDTH 100
CHARSET_REGISTRY "ISO10646"
CHARSET_ENCODING "1"
DEFAULT_CHAR 0
FONT_DESCENT 4
FONT_ASCENT 16
X_HEIGHT 8
CAP_HEIGHT 13
COPYRIGHT "Public domain font.  Share and enjoy."
_GBDFED_INFO "Edited with gbdfed 1.6."
ENDPROPERTIES
CHARS 250
STARTCHAR char0
ENCODING 0
SWIDTH 480 0
DWIDTH 10 0
BBX 14 20 0 -4
BITMAP
0000
5500
0080
4000
0080
4000
0080
4000
0080
4000
0080
4000
0080
4000
0080
4000
0080
4000
2A80
0000
ENDCHAR
STARTCHAR uni25C6
ENCODING 1
SWIDTH 480 0
DWIDTH 10 0
BBX 14 20 0 -4
BITMAP
0000
0000
0000
0000
0000
0000
0C00
1200
2100
4080
8040
4080
2100
1200
0C00
0000
0000
0000
0000
0000
ENDCHAR
STARTCHAR dkshade
ENCODING 2
SWIDTH 480 0
DWIDTH 10 0
BBX 14 20 0 -4
BITMAP
FFC0
FFC0
FFC0
FFC0
FFC0
FFC0
FFC0
FFC0
FFC0
FFC0
FFC0
FFC0
FFC0
FFC0
FFC0
FFC0
FFC0
FFC0
FFC0
FFC0
ENDCHAR
STARTCHAR uni2409
ENCODING 3
SWIDTH 480 0
DWIDTH 10 0
BBX 14 20 0 -4
BITMAP
0000
0000
6600
6600
6600
7E00
6600
6600
6600
0000
1F80
0600
0600
0600
0600
0600
0000
0000
0000
0000
ENDCHAR
STARTCHAR uni240C
ENCODING 4
SWIDTH 480 0
DWIDTH 10 0
BBX 14 20 0 -4
BITMAP
0000
0000
7C00
6000
6000
7800
6000
6000
6000
0F80
0C00
0C00
0F00
0C00
0C00
0C00
0000
0000
0000
0000
ENDCHAR
STARTCHAR uni240D
ENCODING 5
SWIDTH 480 0
DWIDTH 10 0
BBX 14 20 0 -4
BITMAP
0000
0000
3C00
6600
6000
6000
6600
3C00
0000
1F00
1980
1980
1F00
1E00
1B00
1980
0000
0000
0000
0000
ENDCHAR
STARTCHAR uni240A
ENCODING 6
SWIDTH 480 0
DWIDTH 10 0
BBX 14 20 0 -4
BITMAP
0000
0000
3000
3000
3000
3000
3000
3E00
0000
0F80
0C00
0C00
0F00
0C00
0C00
0C00
0000
0000
0000
0000
ENDCHAR
STARTCHAR degree
ENCODING 7
SWIDTH 480 0
DWIDTH 10 0
BBX 14 20 0 -4
BITMAP
0000
0000
0000
1C00
3600
3600
3600
1C00
0000
0000
0000
0000
0000
0000
0000
0000
0000
0000
0000
0000
ENDCHAR
STARTCHAR plusminus
ENCODING 8
SWIDTH 480 0
DWIDTH 10 0
BBX 14 20 0 -4
BITMAP
0000
0000
0000
0000
0000
0C00
0C00
0C00
FF80
FF80
1800
1800
1800
FF00
FF00
0000
0000
0000
0000
0000
ENDCHAR
STARTCHAR uni2424
ENCODING 9
SWIDTH 480 0
DWIDTH 10 0
BBX 14 20 0 -4
BITMAP
0000
0000
6600
7600
7E00
7E00
6E00
6600
0000
0C00
0C00
0C00
0C00
0C00
0C00
0F80
0000
0000
0000
0000
ENDCHAR
STARTCHAR uni240B
ENCODING 10
SWIDTH 480 0
DWIDTH 10 0
BBX 14 20 0 -4
BITMAP
0000
0000
6600
6600
6600
3C00
3C00
1800
1800
0000
1F80
0600
0600
0600
0600
0600
0000
0000
0000
0000
ENDCHAR
STARTCHAR char11
ENCODING 11
SWIDTH 480 0
DWIDTH 10 0
BBX 14 20 0 -4
BITMAP
0C00
0C00
0C00
0C00
0C00
0C00
0C00
0C00
0C00
FC00
FC00
0000
0000
0000
0000
0000
0000
0000
0000
0000
ENDCHAR
STARTCHAR char15
ENCODING 12
SWIDTH 480 0
DWIDTH 10 0
BBX 14 20 0 -4
BITMAP
0000
0000
0000
0000
0000
0000
0000
0000
0000
FC00
FC00
0C00
0C00
0C00
0C00
0C00
0C00
0C00
0C00
0C00
ENDCHAR
STARTCHAR char12
ENCODING 13
SWIDTH 480 0
DWIDTH 10 0
BBX 14 20 0 -4
BITMAP
0000
0000
0000
0000
0000
0000
0000
0000
0000
0FC0
0FC0
0C00
0C00
0C00
0C00
0C00
0C00
0C00
0C00
0C00
ENDCHAR
STARTCHAR char13
ENCODING 14
SWIDTH 480 0
DWIDTH 10 0
BBX 14 20 0 -4
BITMAP
0C00
0C00
0C00
0C00
0C00
0C00
0C00
0C00
0C00
0FC0
0FC0
0000
0000
0000
0000
0000
0000
0000
0000
0000
ENDCHAR
STARTCHAR char14
ENCODING 15
SWIDTH 480 0
DWIDTH 10 0
BBX 14 20 0 -4
BITMAP
0C00
0C00
0C00
0C00
0C00
0C00
0C00
0C00
0C00
FFC0
FFC0
0C00
0C00
0C00
0C00
0C00
0C00
0C00
0C00
0C00
ENDCHAR
STARTCHAR char15
ENCODING 16
SWIDTH 480 0
DWIDTH 10 0
BBX 14 20 0 -4
BITMAP
FFC0
FFC0
0000
0000
0000
0000
0000
0000
0000
0000
0000
0000
0000
0000
0000
0000
0000
0000
0000
0000
ENDCHAR
STARTCHAR char17
ENCODING 17
SWIDTH 480 0
DWIDTH 10 0
BBX 14 20 0 -4
BITMAP
0000
0000
0000
0000
0000
FFC0
FFC0
0000
0000
0000
0000
0000
0000
0000
0000
0000
0000
0000
0000
0000
ENDCHAR
STARTCHAR char18
ENCODING 18
SWIDTH 480 0
DWIDTH 10 0
BBX 14 20 0 -4
BITMAP
0000
0000
0000
0000
0000
0000
0000
0000
0000
FFC0
FFC0
0000
0000
0000
0000
0000
0000
0000
0000
0000
ENDCHAR
STARTCHAR char19
ENCODING 19
SWIDTH 480 0
DWIDTH 10 0
BBX 14 20 0 -4
BITMAP
0000
0000
0000
0000
0000
0000
0000
0000
0000
0000
0000
0000
0000
0000
FFC0
FFC0
0000
0000
0000
0000
ENDCHAR
STARTCHAR char20
ENCODING 20
SWIDTH 480 0
DWIDTH 10 0
BBX 14 20 0 -4
BITMAP
0000
0000
0000
0000
0000
0000
0000
0000
0000
0000
0000
0000
0000
0000
0000
0000
0000
0000
FFC0
FFC0
ENDCHAR
STARTCHAR char21
ENCODING 21
SWIDTH 480 0
DWIDTH 10 0
BBX 14 20 0 -4
BITMAP
0C00
0C00
0C00
0C00
0C00
0C00
0C00
0C00
0C00
0FC0
0FC0
0C00
0C00
0C00
0C00
0C00
0C00
0C00
0C00
0C00
ENDCHAR
STARTCHAR char22
ENCODING 22
SWIDTH 480 0
DWIDTH 10 0
BBX 14 20 0 -4
BITMAP
0C00
0C00
0C00
0C00
0C00
0C00
0C00
0C00
0C00
FC00
FC00
0C00
0C00
0C00
0C00
0C00
0C00
0C00
0C00
0C00
ENDCHAR
STARTCHAR char23
ENCODING 23
SWIDTH 480 0
DWIDTH 10 0
BBX 14 20 0 -4
BITMAP
0C00
0C00
0C00
0C00
0C00
0C00
0C00
0C00
0C00
FFC0
FFC0
0000
0000
0000
0000
0000
0000
0000
0000
0000
ENDCHAR
STARTCHAR char24
ENCODING 24
SWIDTH 480 0
DWIDTH 10 0
BBX 14 20 0 -4
BITMAP
0000
0000
0000
0000
0000
0000
0000
0000
0000
FFC0
FFC0
0C00
0C00
0C00
0C00
0C00
0C00
0C00
0C00
0C00
ENDCHAR
STARTCHAR char25
ENCODING 25
SWIDTH 480 0
DWIDTH 10 0
BBX 14 20 0 -4
BITMAP
0C00
0C00
0C00
0C00
0C00
0C00
0C00
0C00
0C00
0C00
0C00
0C00
0C00
0C00
0C00
0C00
0C00
0C00
0C00
0C00
ENDCHAR
STARTCHAR lessequal
ENCODING 26
SWIDTH 480 0
DWIDTH 10 0
BBX 14 20 0 -4
BITMAP
0000
0000
0000
0000
0000
0000
00C0
03C0
1F00
7800
1E00
0780
0180
0000
FF80
FF80
0000
0000
0000
0000
ENDCHAR
STARTCHAR greaterequal
ENCODING 27
SWIDTH 480 0
DWIDTH 10 0
BBX 14 20 0 -4
BITMAP
0000
0000
0000
0000
0000
0000
3800
1E00
0780
01C0
0F00
7C00
E000
0000
FF80
FF80
0000
0000
0000
0000
ENDCHAR
STARTCHAR pi
ENCODING 28
SWIDTH 480 0
DWIDTH 10 0
BBX 14 20 0 -4
BITMAP
0000
0000
0000
0000
0000
0000
0000
7F80
7F80
3300
3300
3300
6600
6600
6600
6600
0000
0000
0000
0000
ENDCHAR
STARTCHAR notequal
ENCODING 29
SWIDTH 480 0
DWIDTH 10 0
BBX 14 20 0 -4
BITMAP
0000
0000
0000
0000
0000
0000
00C0
0180
3FC0
3FC0
0600
0C00
7F80
7F80
3000
6000
0000
0000
0000
0000
ENDCHAR
STARTCHAR sterling
ENCODING 30
SWIDTH 480 0
DWIDTH 10 0
BBX 14 20 0 -4
BITMAP
0000
0000
0000
0000
0780
0FC0
0EC0
0E00
1C00
7F00
7F00
1C00
7800
FC00
BEC0
E780
0000
0000
0000
0000
ENDCHAR
STARTCHAR hyphen
ENCODING 31
SWIDTH 480 0
DWIDTH 10 0
BBX 14 20 0 -4
BITMAP
0000
0000
0000
0000
0000
0000
0000
0000
0000
1E00
1E00
0000
0000
0000
0000
0000
0000
0000
0000
0000
ENDCHAR
STARTCHAR space
ENCODING 32
SWIDTH 480 0
DWIDTH 10 0
BBX 14 20 0 -4
BITMAP
0000
0000
0000
0000
0000
0000
0000
0000
0000
0000
0000
0000
0000
0000
0000
0000
0000
0000
0000
0000
ENDCHAR
STARTCHAR exclam
ENCODING 33
SWIDTH 480 0
DWIDTH 10 0
BBX 14 20 0 -4
BITMAP
0000
0000
0000
0700
0700
0700
0700
0E00
0E00
0E00
0E00
0E00
1C00
0000
1C00
1C00
0000
0000
0000
0000
ENDCHAR
STARTCHAR quotedbl
ENCODING 34
SWIDTH 480 0
DWIDTH 10 0
BBX 14 20 0 -4
BITMAP
0000
0000
0000
3B80
3B80
3B80
1B00
0000
0000
0000
0000
0000
0000
0000
0000
0000
0000
0000
0000
0000
ENDCHAR
STARTCHAR numbersign
ENCODING 35
SWIDTH 480 0
DWIDTH 10 0
BBX 14 20 0 -4
BITMAP
0000
0000
0000
0000
39C0
39C0
FFC0
FFC0
7380
7380
7380
FFC0
FFC0
E700
E700
0000
0000
0000
0000
0000
ENDCHAR
STARTCHAR dollar
ENCODING 36
SWIDTH 480 0
DWIDTH 10 0
BBX 14 20 0 -4
BITMAP
0000
0000
0000
0700
1F80
3FC0
7700
6E00
7E00
3F00
1F80
1D80
3B80
FF00
7E00
3800
0000
0000
0000
0000
ENDCHAR
STARTCHAR percent
ENCODING 37
SWIDTH 480 0
DWIDTH 10 0
BBX 14 20 0 -4
BITMAP
0000
0000
0000
0000
30C0
79C0
7B80
3700
0700
0E00
1C00
3800
3B00
7780
E780
C300
0000
0000
0000
0000
ENDCHAR
STARTCHAR ampersand
ENCODING 38
SWIDTH 480 0
DWIDTH 10 0
BBX 14 20 0 -4
BITMAP
0000
0000
0000
0F00
1F80
3980
3B80
1F00
1E00
3C00
7E00
77C0
E780
E700
FF80
7D80
0000
0000
0000
0000
ENDCHAR
STARTCHAR quotesingle
ENCODING 39
SWIDTH 480 0
DWIDTH 10 0
BBX 14 20 0 -4
BITMAP
0000
0000
0000
0E00
0E00
0E00
1C00
1800
0000
0000
0000
0000
0000
0000
0000
0000
0000
0000
0000
0000
ENDCHAR
STARTCHAR parenleft
ENCODING 40
SWIDTH 480 0
DWIDTH 10 0
BBX 14 20 0 -4
BITMAP
0000
0000
0000
0380
0700
0E00
1C00
1C00
3800
3800
3800
3800
3800
3800
1C00
0E00
0000
0000
0000
0000
ENDCHAR
STARTCHAR parenright
ENCODING 41
SWIDTH 480 0
DWIDTH 10 0
BBX 14 20 0 -4
BITMAP
0000
0000
0000
0E00
0700
0380
0380
0380
0380
0380
0380
0700
0700
0E00
1C00
3800
0000
0000
0000
0000
ENDCHAR
STARTCHAR asterisk
ENCODING 42
SWIDTH 480 0
DWIDTH 10 0
BBX 14 20 0 -4
BITMAP
0000
0000
0000
0000
0000
0000
3B80
3B80
1F00
FFC0
3E00
7700
7700
0000
0000
0000
0000
0000
0000
0000
ENDCHAR
STARTCHAR plus
ENCODING 43
SWIDTH 480 0
DWIDTH 10 0
BBX 14 20 0 -4
BITMAP
0000
0000
0000
0000
0000
0000
0E00
0E00
0E00
7F80
7F80
1C00
1C00
1C00
0000
0000
0000
0000
0000
0000
ENDCHAR
STARTCHAR comma
ENCODING 44
SWIDTH 480 0
DWIDTH 10 0
BBX 14 20 0 -4
BITMAP
0000
0000
0000
0000
0000
0000
0000
0000
0000
0000
0000
0000
0000
0000
0F00
0F00
1E00
0000
0000
0000
ENDCHAR
STARTCHAR hyphen
ENCODING 45
SWIDTH 480 0
DWIDTH 10 0
BBX 14 20 0 -4
BITMAP
0000
0000
0000
0000
0000
0000
0000
0000
0000
7F80
7F80
0000
0000
0000
0000
0000
0000
0000
0000
0000
ENDCHAR
STARTCHAR period
ENCODING 46
SWIDTH 480 0
DWIDTH 10 0
BBX 14 20 0 -4
BITMAP
0000
0000
0000
0000
0000
0000
0000
0000
0000
0000
0000
0000
0000
1C00
1C00
1C00
0000
0000
0000
0000
ENDCHAR
STARTCHAR slash
ENCODING 47
SWIDTH 480 0
DWIDTH 10 0
BBX 14 20 0 -4
BITMAP
0000
0000
0000
0000
00C0
01C0
0380
0700
0700
0E00
1C00
3800
3800
7000
E000
C000
0000
0000
0000
0000
ENDCHAR
STARTCHAR zero
ENCODING 48
SWIDTH 480 0
DWIDTH 10 0
BBX 14 20 0 -4
BITMAP
0000
0000
0000
0700
0F80
1DC0
39C0
71C0
71C0
71C0
71C0
71C0
7380
7700
3E00
1C00
0000
0000
0000
0000
ENDCHAR
STARTCHAR one
ENCODING 49
SWIDTH 480 0
DWIDTH 10 0
BBX 14 20 0 -4
BITMAP
0000
0000
0000
0380
0780
0F80
1F80
0700
0700
0700
0700
0700
0E00
0E00
7FC0
7FC0
0000
0000
0000
0000
ENDCHAR
STARTCHAR two
ENCODING 50
SWIDTH 480 0
DWIDTH 10 0
BBX 14 20 0 -4
BITMAP
0000
0000
0000
1F00
3B80
71C0
71C0
0380
0700
0E00
1C00
3800
7000
E000
FF80
FF80
0000
0000
0000
0000
ENDCHAR
STARTCHAR three
ENCODING 51
SWIDTH 480 0
DWIDTH 10 0
BBX 14 20 0 -4
BITMAP
0000
0000
0000
1F00
3B80
71C0
71C0
01C0
0380
0F00
0700
0380
E380
E380
7700
3E00
0000
0000
0000
0000
ENDCHAR
STARTCHAR four
ENCODING 52
SWIDTH 480 0
DWIDTH 10 0
BBX 14 20 0 -4
BITMAP
0000
0000
0000
01C0
03C0
07C0
0FC0
1F80
3B80
7380
7FC0
7FC0
0700
0700
0700
0700
0000
0000
0000
0000
ENDCHAR
STARTCHAR five
ENCODING 53
SWIDTH 480 0
DWIDTH 10 0
BBX 14 20 0 -4
BITMAP
0000
0000
0000
3FC0
3FC0
3800
3800
7000
7F00
7B80
01C0
01C0
01C0
E380
7700
3E00
0000
0000
0000
0000
ENDCHAR
STARTCHAR six
ENCODING 54
SWIDTH 480 0
DWIDTH 10 0
BBX 14 20 0 -4
BITMAP
0000
0000
0000
0F80
1DC0
38C0
3800
7000
7F00
7B80
71C0
71C0
E380
E380
7700
3E00
0000
0000
0000
0000
ENDCHAR
STARTCHAR seven
ENCODING 55
SWIDTH 480 0
DWIDTH 10 0
BBX 14 20 0 -4
BITMAP
0000
0000
0000
7FC0
7FC0
01C0
0380
0700
0700
0E00
1C00
1C00
3800
7000
7000
E000
0000
0000
0000
0000
ENDCHAR
STARTCHAR eight
ENCODING 56
SWIDTH 480 0
DWIDTH 10 0
BBX 14 20 0 -4
BITMAP
0000
0000
0000
0F80
1DC0
39C0
39C0
3B80
3F00
1F00
3B80
7380
E380
E380
7700
3E00
0000
0000
0000
0000
ENDCHAR
STARTCHAR nine
ENCODING 57
SWIDTH 480 0
DWIDTH 10 0
BBX 14 20 0 -4
BITMAP
0000
0000
0000
1F00
3B80
71C0
71C0
E1C0
E380
7780
3F80
0380
0700
C700
EE00
7C00
0000
0000
0000
0000
ENDCHAR
STARTCHAR colon
ENCODING 58
SWIDTH 480 0
DWIDTH 10 0
BBX 14 20 0 -4
BITMAP
0000
0000
0000
0000
0000
0000
0000
0000
0E00
0E00
0000
0000
0000
0000
1C00
1C00
0000
0000
0000
0000
ENDCHAR
STARTCHAR semicolon
ENCODING 59
SWIDTH 480 0
DWIDTH 10 0
BBX 14 20 0 -4
BITMAP
0000
0000
0000
0000
0000
0000
0000
0000
0700
0700
0000
0000
0000
0000
0E00
0E00
1C00
0000
0000
0000
ENDCHAR
STARTCHAR less
ENCODING 60
SWIDTH 480 0
DWIDTH 10 0
BBX 14 20 0 -4
BITMAP
0000
0000
0000
01C0
0380
0700
1E00
3800
7000
E000
E000
7000
3800
1C00
0E00
0700
0000
0000
0000
0000
ENDCHAR
STARTCHAR equal
ENCODING 61
SWIDTH 480 0
DWIDTH 10 0
BBX 14 20 0 -4
BITMAP
0000
0000
0000
0000
0000
0000
0000
3FC0
3FC0
0000
0000
0000
7F80
7F80
0000
0000
0000
0000
0000
0000
ENDCHAR
STARTCHAR greater
ENCODING 62
SWIDTH 480 0
DWIDTH 10 0
BBX 14 20 0 -4
BITMAP
0000
0000
0000
1800
1C00
0E00
0700
0380
01C0
01C0
0380
0700
1E00
3800
7000
E000
0000
0000
0000
0000
ENDCHAR
STARTCHAR question
ENCODING 63
SWIDTH 480 0
DWIDTH 10 0
BBX 14 20 0 -4
BITMAP
0000
0000
0000
1F00
3B80
71C0
E1C0
0380
0700
0E00
1C00
1C00
1C00
0000
3800
3800
0000
0000
0000
0000
ENDCHAR
STARTCHAR at
ENCODING 64
SWIDTH 480 0
DWIDTH 10 0
BBX 14 20 0 -4
BITMAP
0000
0000
0000
0F80
1DC0
39C0
3FC0
7F80
7D80
7D80
7D80
7F80
E700
E000
7700
3E00
0000
0000
0000
0000
ENDCHAR
STARTCHAR A
ENCODING 65
SWIDTH 480 0
DWIDTH 10 0
BBX 14 20 0 -4
BITMAP
0000
0000
0000
0700
0F80
1DC0
39C0
71C0
71C0
71C0
7FC0
71C0
E380
E380
E380
E380
0000
0000
0000
0000
ENDCHAR
STARTCHAR B
ENCODING 66
SWIDTH 480 0
DWIDTH 10 0
BBX 14 20 0 -4
BITMAP
0000
0000
0000
3F00
3B80
39C0
39C0
7380
7700
7F00
7380
71C0
E1C0
E380
E700
FE00
0000
0000
0000
0000
ENDCHAR
STARTCHAR C
ENCODING 67
SWIDTH 480 0
DWIDTH 10 0
BBX 14 20 0 -4
BITMAP
0000
0000
0000
0F00
1D80
38C0
3800
7000
7000
7000
7000
7000
E000
E380
7700
3E00
0000
0000
0000
0000
ENDCHAR
STARTCHAR D
ENCODING 68
SWIDTH 480 0
DWIDTH 10 0
BBX 14 20 0 -4
BITMAP
0000
0000
0000
3F80
39C0
38C0
38C0
71C0
71C0
71C0
71C0
71C0
E380
E380
E700
FE00
0000
0000
0000
0000
ENDCHAR
STARTCHAR E
ENCODING 69
SWIDTH 480 0
DWIDTH 10 0
BBX 14 20 0 -4
BITMAP
0000
0000
0000
3FC0
3800
3800
3800
7000
7000
7F00
7000
7000
E000
E000
E000
FF80
0000
0000
0000
0000
ENDCHAR
STARTCHAR F
ENCODING 70
SWIDTH 480 0
DWIDTH 10 0
BBX 14 20 0 -4
BITMAP
0000
0000
0000
3FC0
3FC0
3800
3800
7000
7000
7F00
7F00
7000
E000
E000
E000
E000
0000
0000
0000
0000
ENDCHAR
STARTCHAR G
ENCODING 71
SWIDTH 480 0
DWIDTH 10 0
BBX 14 20 0 -4
BITMAP
0000
0000
0000
0F80
1DC0
38C0
3800
7000
7000
77C0
71C0
71C0
E380
E380
7780
3F80
0000
0000
0000
0000
ENDCHAR
STARTCHAR H
ENCODING 72
SWIDTH 480 0
DWIDTH 10 0
BBX 14 20 0 -4
BITMAP
0000
0000
0000
39C0
39C0
39C0
39C0
7380
7380
7F80
7380
7380
E700
E700
E700
E700
0000
0000
0000
0000
ENDCHAR
STARTCHAR I
ENCODING 73
SWIDTH 480 0
DWIDTH 10 0
BBX 14 20 0 -4
BITMAP
0000
0000
0000
3FC0
0700
0700
0700
0E00
0E00
0E00
0E00
0E00
1C00
1C00
1C00
FF00
0000
0000
0000
0000
ENDCHAR
STARTCHAR J
ENCODING 74
SWIDTH 480 0
DWIDTH 10 0
BBX 14 20 0 -4
BITMAP
0000
0000
0000
07C0
01C0
01C0
01C0
0380
0380
0380
0380
0380
E700
E700
7E00
3C00
0000
0000
0000
0000
ENDCHAR
STARTCHAR K
ENCODING 75
SWIDTH 480 0
DWIDTH 10 0
BBX 14 20 0 -4
BITMAP
0000
0000
0000
39C0
39C0
3B80
3B80
7700
7E00
7E00
7700
7700
E700
E700
E380
E380
0000
0000
0000
0000
ENDCHAR
STARTCHAR L
ENCODING 76
SWIDTH 480 0
DWIDTH 10 0
BBX 14 20 0 -4
BITMAP
0000
0000
0000
1C00
1C00
1C00
1C00
3800
3800
3800
3800
3800
7000
7000
7FC0
7FC0
0000
0000
0000
0000
ENDCHAR
STARTCHAR M
ENCODING 77
SWIDTH 480 0
DWIDTH 10 0
BBX 14 20 0 -4
BITMAP
0000
0000
0000
39C0
39C0
3FC0
3FC0
7F80
7F80
7F80
7F80
7F80
E700
E700
E700
E700
0000
0000
0000
0000
ENDCHAR
STARTCHAR N
ENCODING 78
SWIDTH 480 0
DWIDTH 10 0
BBX 14 20 0 -4
BITMAP
0000
0000
0000
39C0
39C0
3DC0
3DC0
3F80
7F80
7F80
7F80
7F80
EF00
EF00
E700
E700
0000
0000
0000
0000
ENDCHAR
STARTCHAR O
ENCODING 79
SWIDTH 480 0
DWIDTH 10 0
BBX 14 20 0 -4
BITMAP
0000
0000
0000
0F00
1F80
39C0
39C0
71C0
7380
7380
7380
E380
E700
E700
7E00
3C00
0000
0000
0000
0000
ENDCHAR
STARTCHAR P
ENCODING 80
SWIDTH 480 0
DWIDTH 10 0
BBX 14 20 0 -4
BITMAP
0000
0000
0000
3F80
3B80
39C0
39C0
7380
7380
7700
7F00
7000
E000
E000
E000
E000
0000
0000
0000
0000
ENDCHAR
STARTCHAR Q
ENCODING 81
SWIDTH 480 0
DWIDTH 10 0
BBX 14 20 0 -4
BITMAP
0000
0000
0000
0F00
1F80
39C0
39C0
71C0
7380
7380
7380
E380
FF00
EF00
7700
3F00
0380
0000
0000
0000
ENDCHAR
STARTCHAR R
ENCODING 82
SWIDTH 480 0
DWIDTH 10 0
BBX 14 20 0 -4
BITMAP
0000
0000
0000
3F00
3B80
39C0
39C0
71C0
7380
7700
7E00
7E00
EE00
E700
E700
E380
0000
0000
0000
0000
ENDCHAR
STARTCHAR S
ENCODING 83
SWIDTH 480 0
DWIDTH 10 0
BBX 14 20 0 -4
BITMAP
0000
0000
0000
0F80
1DC0
38C0
3800
3800
3800
1F00
0380
0380
0380
E380
7700
3E00
0000
0000
0000
0000
ENDCHAR
STARTCHAR T
ENCODING 84
SWIDTH 480 0
DWIDTH 10 0
BBX 14 20 0 -4
BITMAP
0000
0000
0000
7FC0
7FC0
0E00
0E00
1C00
1C00
1C00
1C00
1C00
3800
3800
3800
3800
0000
0000
0000
0000
ENDCHAR
STARTCHAR U
ENCODING 85
SWIDTH 480 0
DWIDTH 10 0
BBX 14 20 0 -4
BITMAP
0000
0000
0000
39C0
39C0
39C0
39C0
7380
7380
7380
7380
7380
E700
E700
7E00
3C00
0000
0000
0000
0000
ENDCHAR
STARTCHAR V
ENCODING 86
SWIDTH 480 0
DWIDTH 10 0
BBX 14 20 0 -4
BITMAP
0000
0000
0000
71C0
71C0
71C0
7380
7380
7700
7700
3E00
3E00
3C00
3C00
3800
3800
0000
0000
0000
0000
ENDCHAR
STARTCHAR W
ENCODING 87
SWIDTH 480 0
DWIDTH 10 0
BBX 14 20 0 -4
BITMAP
0000
0000
0000
39C0
39C0
39C0
39C0
7380
7F80
7F80
7F80
7F80
FF00
FF00
E700
E700
0000
0000
0000
0000
ENDCHAR
STARTCHAR X
ENCODING 88
SWIDTH 480 0
DWIDTH 10 0
BBX 14 20 0 -4
BITMAP
0000
0000
0000
39C0
39C0
3B80
3B80
1F00
1F00
1E00
3E00
3F00
7700
7380
E380
E380
0000
0000
0000
0000
ENDCHAR
STARTCHAR Y
ENCODING 89
SWIDTH 480 0
DWIDTH 10 0
BBX 14 20 0 -4
BITMAP
0000
0000
0000
71C0
71C0
3B80
3B80
3F00
1E00
1C00
1C00
1C00
3800
3800
3800
3800
0000
0000
0000
0000
ENDCHAR
STARTCHAR Z
ENCODING 90
SWIDTH 480 0
DWIDTH 10 0
BBX 14 20 0 -4
BITMAP
0000
0000
0000
7FC0
01C0
0380
0380
0700
0E00
1E00
1C00
3800
7000
7000
E000
FF80
0000
0000
0000
0000
ENDCHAR
STARTCHAR bracketleft
ENCODING 91
SWIDTH 480 0
DWIDTH 10 0
BBX 14 20 0 -4
BITMAP
0000
0000
0000
1FC0
1C00
1C00
1C00
3800
3800
3800
3800
3800
7000
7000
7000
7F00
0000
0000
0000
0000
ENDCHAR
STARTCHAR backslash
ENCODING 92
SWIDTH 480 0
DWIDTH 10 0
BBX 14 20 0 -4
BITMAP
0000
0000
0000
0000
1C00
1C00
0E00
0E00
0E00
0E00
0700
0700
0700
0700
0380
0380
0000
0000
0000
0000
ENDCHAR
STARTCHAR bracketright
ENCODING 93
SWIDTH 480 0
DWIDTH 10 0
BBX 14 20 0 -4
BITMAP
0000
0000
0000
1FC0
01C0
01C0
01C0
0380
0380
0380
0380
0380
0700
0700
0700
7F00
0000
0000
0000
0000
ENDCHAR
STARTCHAR asciicircum
ENCODING 94
SWIDTH 480 0
DWIDTH 10 0
BBX 14 20 0 -4
BITMAP
0000
0000
0000
0E00
1F00
3B80
71C0
0000
0000
0000
0000
0000
0000
0000
0000
0000
0000
0000
0000
0000
ENDCHAR
STARTCHAR underscore
ENCODING 95
SWIDTH 480 0
DWIDTH 10 0
BBX 14 20 0 -4
BITMAP
0000
0000
0000
0000
0000
0000
0000
0000
0000
0000
0000
0000
0000
0000
0000
0000
FFC0
0000
0000
0000
ENDCHAR
STARTCHAR grave
ENCODING 96
SWIDTH 480 0
DWIDTH 10 0
BBX 14 20 0 -4
BITMAP
0000
0000
0000
1C00
0E00
0700
0000
0000
0000
0000
0000
0000
0000
0000
0000
0000
0000
0000
0000
0000
ENDCHAR
STARTCHAR a
ENCODING 97
SWIDTH 480 0
DWIDTH 10 0
BBX 14 20 0 -4
BITMAP
0000
0000
0000
0000
0000
0000
0000
0000
1F80
39C0
01C0
3FC0
E380
E380
E380
7F80
0000
0000
0000
0000
ENDCHAR
STARTCHAR b
ENCODING 98
SWIDTH 480 0
DWIDTH 10 0
BBX 14 20 0 -4
BITMAP
0000
0000
0000
3800
3800
3800
3800
7000
7F00
7B80
71C0
71C0
E380
E380
F700
FE00
0000
0000
0000
0000
ENDCHAR
STARTCHAR c
ENCODING 99
SWIDTH 480 0
DWIDTH 10 0
BBX 14 20 0 -4
BITMAP
0000
0000
0000
0000
0000
0000
0000
0000
1F80
39C0
7000
7000
E000
E000
7380
3F00
0000
0000
0000
0000
ENDCHAR
STARTCHAR d
ENCODING 100
SWIDTH 480 0
DWIDTH 10 0
BBX 14 20 0 -4
BITMAP
0000
0000
0000
01C0
01C0
01C0
01C0
0380
1F80
3F80
7380
7380
E700
E700
7F00
3F00
0000
0000
0000
0000
ENDCHAR
STARTCHAR e
ENCODING 101
SWIDTH 480 0
DWIDTH 10 0
BBX 14 20 0 -4
BITMAP
0000
0000
0000
0000
0000
0000
0000
0000
1F00
3B80
71C0
7FC0
E000
E000
7380
3F00
0000
0000
0000
0000
ENDCHAR
STARTCHAR f
ENCODING 102
SWIDTH 480 0
DWIDTH 10 0
BBX 14 20 0 -4
BITMAP
0000
0000
0000
0F80
1DC0
1DC0
1C00
3800
FE00
3800
3800
3800
7000
7000
7000
7000
0000
0000
0000
0000
ENDCHAR
STARTCHAR g
ENCODING 103
SWIDTH 480 0
DWIDTH 10 0
BBX 14 20 0 -4
BITMAP
0000
0000
0000
0000
0000
0000
0000
0000
1FC0
39C0
39C0
39C0
7380
7F00
7000
3F00
E380
E380
E380
7F00
ENDCHAR
STARTCHAR h
ENCODING 104
SWIDTH 480 0
DWIDTH 10 0
BBX 14 20 0 -4
BITMAP
0000
0000
0000
3800
3800
3800
3800
7000
7F00
7B80
71C0
71C0
E380
E380
E380
E380
0000
0000
0000
0000
ENDCHAR
STARTCHAR i
ENCODING 105
SWIDTH 480 0
DWIDTH 10 0
BBX 14 20 0 -4
BITMAP
0000
0000
0000
0000
0000
0700
0700
0000
3E00
0E00
0E00
0E00
1C00
1C00
1C00
FF80
0000
0000
0000
0000
ENDCHAR
STARTCHAR j
ENCODING 106
SWIDTH 480 0
DWIDTH 10 0
BBX 14 20 0 -4
BITMAP
0000
0000
0000
0000
0000
01C0
01C0
0000
0F80
0380
0380
0380
0700
0700
0700
0700
EE00
EE00
EE00
7C00
ENDCHAR
STARTCHAR k
ENCODING 107
SWIDTH 480 0
DWIDTH 10 0
BBX 14 20 0 -4
BITMAP
0000
0000
0000
3800
3800
3800
3800
7000
7380
7700
7E00
7C00
FC00
EE00
E700
E380
0000
0000
0000
0000
ENDCHAR
STARTCHAR l
ENCODING 108
SWIDTH 480 0
DWIDTH 10 0
BBX 14 20 0 -4
BITMAP
0000
0000
0000
1F00
0700
0700
0700
0E00
0E00
0E00
0E00
0E00
1C00
1C00
1C00
FF80
0000
0000
0000
0000
ENDCHAR
STARTCHAR m
ENCODING 109
SWIDTH 480 0
DWIDTH 10 0
BBX 14 20 0 -4
BITMAP
0000
0000
0000
0000
0000
0000
0000
0000
6D80
7FC0
76C0
76C0
ED80
ED80
ED80
ED80
0000
0000
0000
0000
ENDCHAR
STARTCHAR n
ENCODING 110
SWIDTH 480 0
DWIDTH 10 0
BBX 14 20 0 -4
BITMAP
0000
0000
0000
0000
0000
0000
0000
0000
7F00
7B80
71C0
71C0
E380
E380
E380
E380
0000
0000
0000
0000
ENDCHAR
STARTCHAR o
ENCODING 111
SWIDTH 480 0
DWIDTH 10 0
BBX 14 20 0 -4
BITMAP
0000
0000
0000
0000
0000
0000
0000
0000
1F00
3B80
71C0
71C0
E380
E380
7700
3E00
0000
0000
0000
0000
ENDCHAR
STARTCHAR p
ENCODING 112
SWIDTH 480 0
DWIDTH 10 0
BBX 14 20 0 -4
BITMAP
0000
0000
0000
0000
0000
0000
0000
0000
3F00
3F80
39C0
39C0
7380
7380
7F00
7F00
E000
E000
E000
E000
ENDCHAR
STARTCHAR q
ENCODING 113
SWIDTH 480 0
DWIDTH 10 0
BBX 14 20 0 -4
BITMAP
0000
0000
0000
0000
0000
0000
0000
0000
1FC0
3BC0
71C0
71C0
E380
E380
7780
3F80
0700
0700
0700
0700
ENDCHAR
STARTCHAR r
ENCODING 114
SWIDTH 480 0
DWIDTH 10 0
BBX 14 20 0 -4
BITMAP
0000
0000
0000
0000
0000
0000
0000
0000
7F80
3DC0
3800
3800
7000
7000
7000
7000
0000
0000
0000
0000
ENDCHAR
STARTCHAR s
ENCODING 115
SWIDTH 480 0
DWIDTH 10 0
BBX 14 20 0 -4
BITMAP
0000
0000
0000
0000
0000
0000
0000
0000
3F80
71C0
7000
3F00
0780
0380
E380
7F00
0000
0000
0000
0000
ENDCHAR
STARTCHAR t
ENCODING 116
SWIDTH 480 0
DWIDTH 10 0
BBX 14 20 0 -4
BITMAP
0000
0000
0000
0000
0000
0E00
0E00
0E00
7F80
1C00
1C00
1C00
3800
3800
3B80
1F00
0000
0000
0000
0000
ENDCHAR
STARTCHAR u
ENCODING 117
SWIDTH 480 0
DWIDTH 10 0
BBX 14 20 0 -4
BITMAP
0000
0000
0000
0000
0000
0000
0000
0000
71C0
71C0
71C0
71C0
E380
E380
7780
3F80
0000
0000
0000
0000
ENDCHAR
STARTCHAR v
ENCODING 118
SWIDTH 480 0
DWIDTH 10 0
BBX 14 20 0 -4
BITMAP
0000
0000
0000
0000
0000
0000
0000
0000
71C0
71C0
3B80
3B80
3F00
3E00
1C00
1C00
0000
0000
0000
0000
ENDCHAR
STARTCHAR w
ENCODING 119
SWIDTH 480 0
DWIDTH 10 0
BBX 14 20 0 -4
BITMAP
0000
0000
0000
0000
0000
0000
0000
0000
71C0
71C0
71C0
75C0
FF80
FF80
FF80
7700
0000
0000
0000
0000
ENDCHAR
STARTCHAR x
ENCODING 120
SWIDTH 480 0
DWIDTH 10 0
BBX 14 20 0 -4
BITMAP
0000
0000
0000
0000
0000
0000
0000
0000
71C0
3B80
1F00
0E00
1C00
3E00
7700
E380
0000
0000
0000
0000
ENDCHAR
STARTCHAR y
ENCODING 121
SWIDTH 480 0
DWIDTH 10 0
BBX 14 20 0 -4
BITMAP
0000
0000
0000
0000
0000
0000
0000
0000
71C0
71C0
71C0
71C0
E380
E380
7780
3F80
0700
E700
7E00
3C00
ENDCHAR
STARTCHAR z
ENCODING 122
SWIDTH 480 0
DWIDTH 10 0
BBX 14 20 0 -4
BITMAP
0000
0000
0000
0000
0000
0000
0000
0000
3FC0
01C0
0380
0700
1C00
3800
7000
7F80
0000
0000
0000
0000
ENDCHAR
STARTCHAR braceleft
ENCODING 123
SWIDTH 480 0
DWIDTH 10 0
BBX 14 20 0 -4
BITMAP
0000
0000
0000
07C0
0E00
0E00
0E00
1C00
1C00
7800
1C00
1C00
3800
3800
3800
1F00
0000
0000
0000
0000
ENDCHAR
STARTCHAR bar
ENCODING 124
SWIDTH 480 0
DWIDTH 10 0
BBX 14 20 0 -4
BITMAP
0000
0000
0000
0700
0700
0700
0700
0E00
0E00
0E00
0E00
0E00
1C00
1C00
1C00
1C00
0000
0000
0000
0000
ENDCHAR
STARTCHAR braceright
ENCODING 125
SWIDTH 480 0
DWIDTH 10 0
BBX 14 20 0 -4
BITMAP
0000
0000
0000
1F00
0380
0380
0380
0700
0700
03C0
0700
0700
0E00
0E00
0E00
7C00
0000
0000
0000
0000
ENDCHAR
STARTCHAR asciitilde
ENCODING 126
SWIDTH 480 0
DWIDTH 10 0
BBX 14 20 0 -4
BITMAP
0000
0000
0000
0000
0000
0000
0000
0000
3DC0
7FC0
7780
0000
0000
0000
0000
0000
0000
0000
0000
0000
ENDCHAR
STARTCHAR Euro
ENCODING 128
SWIDTH 480 0
DWIDTH 10 0
BBX 14 20 0 -4
BITMAP
0000
0000
0000
0000
0000
0F80
1DC0
3800
7000
FF00
7000
FE00
E000
E000
7700
3E00
0000
0000
0000
0000
ENDCHAR
STARTCHAR comma
ENCODING 130
SWIDTH 480 0
DWIDTH 10 0
BBX 14 20 0 -4
BITMAP
0000
0000
0000
0000
0000
0000
0000
0000
0000
0000
0000
0000
0000
0000
0600
0600
0C00
0000
0000
0000
ENDCHAR
STARTCHAR florin
ENCODING 131
SWIDTH 480 0
DWIDTH 10 0
BBX 14 20 0 -4
BITMAP
0000
0000
0000
03C0
0740
0700
0700
0700
3FC0
0E00
0E00
0E00
1C00
1C00
1C00
1C00
3800
B800
F000
0000
ENDCHAR
STARTCHAR quotedblbase
ENCODING 132
SWIDTH 480 0
DWIDTH 10 0
BBX 14 20 0 -4
BITMAP
0000
0000
0000
0000
0000
0000
0000
0000
0000
0000
0000
0000
0000
0000
3300
3300
3300
6600
0000
0000
ENDCHAR
STARTCHAR ellipsis
ENCODING 133
SWIDTH 480 0
DWIDTH 10 0
BBX 14 20 0 -4
BITMAP
0000
0000
0000
0000
0000
0000
0000
0000
0000
0000
0000
0000
0000
0000
6D80
6D80
0000
0000
0000
0000
ENDCHAR
STARTCHAR dagger
ENCODING 134
SWIDTH 480 0
DWIDTH 10 0
BBX 14 20 0 -4
BITMAP
0000
0000
0000
0600
0600
0600
0600
7FC0
7FC0
0C00
0C00
0C00
1800
1800
1800
1800
0000
0000
0000
0000
ENDCHAR
STARTCHAR daggerdbl
ENCODING 135
SWIDTH 480 0
DWIDTH 10 0
BBX 14 20 0 -4
BITMAP
0000
0000
0000
0600
0600
0600
3FC0
3FC0
0C00
0C00
7F80
7F80
1800
1800
1800
1800
0000
0000
0000
0000
ENDCHAR
STARTCHAR Acircumflex
ENCODING 136
SWIDTH 480 0
DWIDTH 10 0
BBX 14 20 0 -4
BITMAP
0000
0E00
1F00
3B80
0000
0000
0000
0000
0000
0000
0000
0000
0000
0000
0000
0000
0000
0000
0000
0000
ENDCHAR
STARTCHAR perthousand
ENCODING 137
SWIDTH 480 0
DWIDTH 10 0
BBX 14 20 0 -4
BITMAP
0000
0000
0000
0000
10C0
3980
3980
1300
0600
0C00
0C00
1800
3280
67C0
67C0
C280
0000
0000
0000
0000
ENDCHAR
STARTCHAR Scaron
ENCODING 138
SWIDTH 480 0
DWIDTH 10 0
BBX 14 20 0 -4
BITMAP
0000
1DC0
0F80
0700
0000
0F80
1DC0
38C0
7000
3800
1F00
0380
0380
E380
7700
3E00
0000
0000
0000
0000
ENDCHAR
STARTCHAR uni27E8
ENCODING 139
SWIDTH 480 0
DWIDTH 10 0
BBX 14 20 0 -4
BITMAP
0000
0000
0000
0000
0000
0000
0700
0E00
1C00
3800
1C00
0E00
0700
0000
0000
0000
0000
0000
0000
0000
ENDCHAR
STARTCHAR OE
ENCODING 140
SWIDTH 480 0
DWIDTH 10 0
BBX 14 20 0 -4
BITMAP
0000
0000
0000
0FC0
1F00
3700
3700
6E00
6E00
6F80
6E00
6E00
DC00
DC00
FC00
7F00
0000
0000
0000
0000
ENDCHAR
STARTCHAR Zcaron
ENCODING 142
SWIDTH 480 0
DWIDTH 10 0
BBX 14 20 0 -4
BITMAP
0000
1DC0
0F80
0700
0000
3FC0
00C0
01C0
0380
0700
0E00
1C00
3800
7000
E000
FF00
0000
0000
0000
0000
ENDCHAR
STARTCHAR quotereversed
ENCODING 145
SWIDTH 480 0
DWIDTH 10 0
BBX 14 20 0 -4
BITMAP
0000
0000
0000
0700
0700
0600
0300
0000
0000
0000
0000
0000
0000
0000
0000
0000
0000
0000
0000
0000
ENDCHAR
STARTCHAR quoteright
ENCODING 146
SWIDTH 480 0
DWIDTH 10 0
BBX 14 20 0 -4
BITMAP
0000
0000
0000
0700
0700
0300
0600
0000
0000
0000
0000
0000
0000
0000
0000
0000
0000
0000
0000
0000
ENDCHAR
STARTCHAR uni201F
ENCODING 147
SWIDTH 480 0
DWIDTH 10 0
BBX 14 20 0 -4
BITMAP
0000
0000
0000
1DC0
1DC0
1980
0CC0
0000
0000
0000
0000
0000
0000
0000
0000
0000
0000
0000
0000
0000
ENDCHAR
STARTCHAR quotedblright
ENCODING 148
SWIDTH 480 0
DWIDTH 10 0
BBX 14 20 0 -4
BITMAP
0000
0000
0000
3B80
3B80
1980
3300
0000
0000
0000
0000
0000
0000
0000
0000
0000
0000
0000
0000
0000
ENDCHAR
STARTCHAR uni25C6
ENCODING 149
SWIDTH 480 0
DWIDTH 10 0
BBX 14 20 0 -4
BITMAP
0000
0000
0000
0000
0000
0000
0000
0400
0E00
1F00
3F80
1F00
0E00
0400
0000
0000
0000
0000
0000
0000
ENDCHAR
STARTCHAR endash
ENCODING 150
SWIDTH 480 0
DWIDTH 10 0
BBX 14 20 0 -4
BITMAP
0000
0000
0000
0000
0000
0000
0000
0000
0000
3F00
3F00
0000
0000
0000
0000
0000
0000
0000
0000
0000
ENDCHAR
STARTCHAR emdash
ENCODING 151
SWIDTH 480 0
DWIDTH 10 0
BBX 14 20 0 -4
BITMAP
0000
0000
0000
0000
0000
0000
0000
0000
0000
7FC0
7FC0
0000
0000
0000
0000
0000
0000
0000
0000
0000
ENDCHAR
STARTCHAR asciitilde
ENCODING 152
SWIDTH 480 0
DWIDTH 10 0
BBX 14 20 0 -4
BITMAP
0000
0000
0000
3DC0
7FC0
7780
0000
0000
0000
0000
0000
0000
0000
0000
0000
0000
0000
0000
0000
0000
ENDCHAR
STARTCHAR trademark
ENCODING 153
SWIDTH 480 0
DWIDTH 10 0
BBX 14 20 0 -4
BITMAP
0000
0000
FCC0
6FC0
6FC0
6CC0
6CC0
0000
0000
0000
0000
0000
0000
0000
0000
0000
0000
0000
0000
0000
ENDCHAR
STARTCHAR scaron
ENCODING 154
SWIDTH 480 0
DWIDTH 10 0
BBX 14 20 0 -4
BITMAP
0000
0000
0000
0000
1DC0
0F80
0700
0000
1F80
39C0
3800
1F00
0380
01C0
71C0
3F80
0000
0000
0000
0000
ENDCHAR
STARTCHAR uni27E8
ENCODING 155
SWIDTH 480 0
DWIDTH 10 0
BBX 14 20 0 -4
BITMAP
0000
0000
0000
0000
0000
0000
1C00
0E00
0700
0380
0700
0E00
1C00
0000
0000
0000
0000
0000
0000
0000
ENDCHAR
STARTCHAR oe
ENCODING 156
SWIDTH 480 0
DWIDTH 10 0
BBX 14 20 0 -4
BITMAP
0000
0000
0000
0000
0000
0000
0000
0000
1F80
36C0
76C0
77C0
EC00
EC00
6D80
3F00
0000
0000
0000
0000
ENDCHAR
STARTCHAR zcaron
ENCODING 158
SWIDTH 480 0
DWIDTH 10 0
BBX 14 20 0 -4
BITMAP
0000
0000
0000
0000
1DC0
0F80
0700
0000
3FC0
01C0
0380
0F00
1C00
3800
7000
7F80
0000
0000
0000
0000
ENDCHAR
STARTCHAR Ydieresis
ENCODING 159
SWIDTH 480 0
DWIDTH 10 0
BBX 14 20 0 -4
BITMAP
0000
3B80
3B80
0000
71C0
71C0
3B80
3B80
3F00
3E00
1C00
1C00
3800
3800
3800
3800
0000
0000
0000
0000
ENDCHAR
STARTCHAR space
ENCODING 160
SWIDTH 480 0
DWIDTH 10 0
BBX 14 20 0 -4
BITMAP
0000
0000
0000
0000
0000
0000
0000
0000
0000
0000
0000
0000
0000
0000
0000
0000
0000
0000
0000
0000
ENDCHAR
STARTCHAR exclamdown
ENCODING 161
SWIDTH 480 0
DWIDTH 10 0
BBX 14 20 0 -4
BITMAP
0000
0000
0000
0700
0700
0000
0700
0700
0E00
0E00
0E00
0E00
1C00
1C00
1C00
1C00
0000
0000
0000
0000
ENDCHAR
STARTCHAR cent
ENCODING 162
SWIDTH 480 0
DWIDTH 10 0
BBX 14 20 0 -4
BITMAP
0000
0000
0000
0000
0700
0700
1F00
3B80
7180
7000
7000
7180
7700
3E00
1C00
1C00
0000
0000
0000
0000
ENDCHAR
STARTCHAR sterling
ENCODING 163
SWIDTH 480 0
DWIDTH 10 0
BBX 14 20 0 -4
BITMAP
0000
0000
0000
0000
0780
0FC0
0EC0
0E00
1C00
7F00
7F00
1C00
7800
FC00
BEC0
E780
0000
0000
0000
0000
ENDCHAR
STARTCHAR currency
ENCODING 164
SWIDTH 480 0
DWIDTH 10 0
BBX 14 20 0 -4
BITMAP
0000
0000
0000
0000
0000
0000
30C0
36C0
3F80
7380
7380
7380
7F00
DB00
C300
0000
0000
0000
0000
0000
ENDCHAR
STARTCHAR yen
ENCODING 165
SWIDTH 480 0
DWIDTH 10 0
BBX 14 20 0 -4
BITMAP
0000
0000
0000
0000
0000
E1C0
7380
3F00
3E00
7F00
1C00
7F00
3800
3800
3800
3800
0000
0000
0000
0000
ENDCHAR
STARTCHAR brokenbar
ENCODING 166
SWIDTH 480 0
DWIDTH 10 0
BBX 14 20 0 -4
BITMAP
0000
0000
0000
0700
0700
0700
0700
0E00
0E00
0000
0E00
0E00
1C00
1C00
1C00
1C00
0000
0000
0000
0000
ENDCHAR
STARTCHAR section
ENCODING 167
SWIDTH 480 0
DWIDTH 10 0
BBX 14 20 0 -4
BITMAP
0000
0000
0000
0F80
1DC0
19C0
3C00
7E00
7700
3B80
1DC0
0FC0
0780
7300
7700
3E00
0000
0000
0000
0000
ENDCHAR
STARTCHAR dieresis
ENCODING 168
SWIDTH 480 0
DWIDTH 10 0
BBX 14 20 0 -4
BITMAP
0000
0000
0000
3B80
3B80
0000
0000
0000
0000
0000
0000
0000
0000
0000
0000
0000
0000
0000
0000
0000
ENDCHAR
STARTCHAR copyright
ENCODING 169
SWIDTH 480 0
DWIDTH 10 0
BBX 14 20 0 -4
BITMAP
0000
0000
0000
0000
0000
0F00
1F80
3FC0
73C0
6D80
6F80
6D80
F300
FF00
7E00
3C00
0000
0000
0000
0000
ENDCHAR
STARTCHAR ordfeminine
ENCODING 170
SWIDTH 480 0
DWIDTH 10 0
BBX 14 20 0 -4
BITMAP
0000
0000
0000
0FC0
18C0
00C0
1FC0
38C0
7180
3F80
0000
7F80
0000
0000
0000
0000
0000
0000
0000
0000
ENDCHAR
STARTCHAR guillemotleft
ENCODING 171
SWIDTH 480 0
DWIDTH 10 0
BBX 14 20 0 -4
BITMAP
0000
0000
0000
0000
0000
0740
0EC0
1D80
3B00
7600
EC00
EC00
7600
3B00
1D80
0C80
0000
0000
0000
0000
ENDCHAR
STARTCHAR logicalnot
ENCODING 172
SWIDTH 480 0
DWIDTH 10 0
BBX 14 20 0 -4
BITMAP
0000
0000
0000
0000
0000
0000
0000
0000
7F80
7F80
0380
0380
0380
0000
0000
0000
0000
0000
0000
0000
ENDCHAR
STARTCHAR hyphen
ENCODING 173
SWIDTH 480 0
DWIDTH 10 0
BBX 14 20 0 -4
BITMAP
0000
0000
0000
0000
0000
0000
0000
0000
0000
3F00
3F00
0000
0000
0000
0000
0000
0000
0000
0000
0000
ENDCHAR
STARTCHAR registered
ENCODING 174
SWIDTH 480 0
DWIDTH 10 0
BBX 14 20 0 -4
BITMAP
0000
0000
0000
0000
0000
0F00
1F80
3FC0
21C0
6D80
6180
6B80
E900
FF00
7E00
3C00
0000
0000
0000
0000
ENDCHAR
STARTCHAR macron
ENCODING 175
SWIDTH 480 0
DWIDTH 10 0
BBX 14 20 0 -4
BITMAP
0000
0000
7F80
7F80
0000
0000
0000
0000
0000
0000
0000
0000
0000
0000
0000
0000
0000
0000
0000
0000
ENDCHAR
STARTCHAR degree
ENCODING 176
SWIDTH 480 0
DWIDTH 10 0
BBX 14 20 0 -4
BITMAP
0000
0000
0000
0F00
1F80
1980
1980
1F80
0F00
0000
0000
0000
0000
0000
0000
0000
0000
0000
0000
0000
ENDCHAR
STARTCHAR plusminus
ENCODING 177
SWIDTH 480 0
DWIDTH 10 0
BBX 14 20 0 -4
BITMAP
0000
0000
0000
0000
0000
0000
0700
0700
3FC0
3FC0
0E00
0E00
0000
7F80
7F80
0000
0000
0000
0000
0000
ENDCHAR
STARTCHAR twosuperior
ENCODING 178
SWIDTH 480 0
DWIDTH 10 0
BBX 14 20 0 -4
BITMAP
0000
0000
0000
0F00
1F80
0380
0700
0E00
1C00
3F00
0000
0000
0000
0000
0000
0000
0000
0000
0000
0000
ENDCHAR
STARTCHAR threesuperior
ENCODING 179
SWIDTH 480 0
DWIDTH 10 0
BBX 14 20 0 -4
BITMAP
0000
0000
0000
0F00
1B80
0380
0700
0380
3700
1E00
0000
0000
0000
0000
0000
0000
0000
0000
0000
0000
ENDCHAR
STARTCHAR acute
ENCODING 180
SWIDTH 480 0
DWIDTH 10 0
BBX 14 20 0 -4
BITMAP
0000
0000
0000
0300
0600
0C00
0000
0000
0000
0000
0000
0000
0000
0000
0000
0000
0000
0000
0000
0000
ENDCHAR
STARTCHAR mu
ENCODING 181
SWIDTH 480 0
DWIDTH 10 0
BBX 14 20 0 -4
BITMAP
0000
0000
0000
0000
0000
0000
0000
0000
0000
39C0
39C0
39C0
7380
7380
7F80
7D80
E000
E000
E000
0000
ENDCHAR
STARTCHAR paragraph
ENCODING 182
SWIDTH 480 0
DWIDTH 10 0
BBX 14 20 0 -4
BITMAP
0000
0000
0000
3FC0
7FC0
7DC0
FDC0
FB80
7B80
1B80
1B80
1B80
3700
3700
3700
3700
0000
0000
0000
0000
ENDCHAR
STARTCHAR periodcentered
ENCODING 183
SWIDTH 480 0
DWIDTH 10 0
BBX 14 20 0 -4
BITMAP
0000
0000
0000
0000
0000
0000
0000
0000
0F00
0F00
0F00
0F00
0000
0000
0000
0000
0000
0000
0000
0000
ENDCHAR
STARTCHAR cedilla
ENCODING 184
SWIDTH 480 0
DWIDTH 10 0
BBX 14 20 0 -4
BITMAP
0000
0000
0000
0000
0000
0000
0000
0000
0000
0000
0000
0000
0000
0000
0000
0000
0C00
0600
3600
1C00
ENDCHAR
STARTCHAR onesuperior
ENCODING 185
SWIDTH 480 0
DWIDTH 10 0
BBX 14 20 0 -4
BITMAP
0000
0000
0000
0700
0F00
0700
0700
0E00
0E00
1F00
0000
0000
0000
0000
0000
0000
0000
0000
0000
0000
ENDCHAR
STARTCHAR ordmasculine
ENCODING 186
SWIDTH 480 0
DWIDTH 10 0
BBX 14 20 0 -4
BITMAP
0000
0000
0000
0F00
1F80
39C0
71C0
7380
3F00
1E00
0000
7F80
0000
0000
0000
0000
0000
0000
0000
0000
ENDCHAR
STARTCHAR guillemotright
ENCODING 187
SWIDTH 480 0
DWIDTH 10 0
BBX 14 20 0 -4
BITMAP
0000
0000
0000
0000
0000
4C00
6E00
3700
1B80
0DC0
0DC0
1B80
3700
6E00
DC00
9800
0000
0000
0000
0000
ENDCHAR
STARTCHAR onequarter
ENCODING 188
SWIDTH 480 0
DWIDTH 10 0
BBX 14 20 0 -4
BITMAP
0000
0000
0000
3000
7000
3180
6300
F600
0C00
1980
3380
6580
CF80
0300
0300
0000
0000
0000
0000
0000
ENDCHAR
STARTCHAR onehalf
ENCODING 189
SWIDTH 480 0
DWIDTH 10 0
BBX 14 20 0 -4
BITMAP
0000
0000
0000
3000
7000
3180
6300
F600
0C00
1B80
36C0
6180
C300
0600
0F80
0000
0000
0000
0000
0000
ENDCHAR
STARTCHAR threequarters
ENCODING 190
SWIDTH 480 0
DWIDTH 10 0
BBX 14 20 0 -4
BITMAP
0000
0000
0000
7800
0C00
3980
1B00
F600
0C00
1980
3380
6580
CF80
0300
0300
0000
0000
0000
0000
0000
ENDCHAR
STARTCHAR questiondown
ENCODING 191
SWIDTH 480 0
DWIDTH 10 0
BBX 14 20 0 -4
BITMAP
0000
0000
0000
0700
0700
0000
0700
0700
0E00
1C00
3800
71C0
E380
E380
7700
3E00
0000
0000
0000
0000
ENDCHAR
STARTCHAR Agrave
ENCODING 192
SWIDTH 480 0
DWIDTH 10 0
BBX 14 20 0 -4
BITMAP
0000
1C00
0E00
0700
0000
0700
1F80
39C0
71C0
71C0
71C0
7FC0
E380
E380
E380
E380
0000
0000
0000
0000
ENDCHAR
STARTCHAR Aacute
ENCODING 193
SWIDTH 480 0
DWIDTH 10 0
BBX 14 20 0 -4
BITMAP
0000
01C0
0380
0700
0000
0700
1F80
39C0
71C0
71C0
71C0
7FC0
E380
E380
E380
E380
0000
0000
0000
0000
ENDCHAR
STARTCHAR Acircumflex
ENCODING 194
SWIDTH 480 0
DWIDTH 10 0
BBX 14 20 0 -4
BITMAP
0000
0700
0F80
1DC0
0000
0700
1F80
39C0
71C0
71C0
71C0
7FC0
E380
E380
E380
E380
0000
0000
0000
0000
ENDCHAR
STARTCHAR Atilde
ENCODING 195
SWIDTH 480 0
DWIDTH 10 0
BBX 14 20 0 -4
BITMAP
0000
0EC0
1FC0
1B80
0000
0700
1F80
39C0
71C0
71C0
71C0
7FC0
E380
E380
E380
E380
0000
0000
0000
0000
ENDCHAR
STARTCHAR Adieresis
ENCODING 196
SWIDTH 480 0
DWIDTH 10 0
BBX 14 20 0 -4
BITMAP
0000
1DC0
1DC0
0000
0700
0F80
1DC0
39C0
71C0
71C0
71C0
7FC0
E380
E380
E380
E380
0000
0000
0000
0000
ENDCHAR
STARTCHAR Aring
ENCODING 197
SWIDTH 480 0
DWIDTH 10 0
BBX 14 20 0 -4
BITMAP
0F80
1DC0
1DC0
0F80
0000
0700
1F80
39C0
71C0
71C0
71C0
7FC0
E380
E380
E380
E380
0000
0000
0000
0000
ENDCHAR
STARTCHAR AE
ENCODING 198
SWIDTH 480 0
DWIDTH 10 0
BBX 14 20 0 -4
BITMAP
0000
0000
0000
07C0
0F00
1F00
3F00
6E00
6E00
7F80
6E00
6E00
DC00
DC00
DC00
DF00
0000
0000
0000
0000
ENDCHAR
STARTCHAR Ccedilla
ENCODING 199
SWIDTH 480 0
DWIDTH 10 0
BBX 14 20 0 -4
BITMAP
0000
0000
0000
0F00
1F80
39C0
3800
7000
7000
7000
7000
7000
E000
E380
7700
3E00
3800
1C00
FC00
7800
ENDCHAR
STARTCHAR Egrave
ENCODING 200
SWIDTH 480 0
DWIDTH 10 0
BBX 14 20 0 -4
BITMAP
0000
1C00
0E00
0700
0000
3FC0
3800
3800
7000
7000
7F00
7000
7000
E000
E000
FF80
0000
0000
0000
0000
ENDCHAR
STARTCHAR Eacute
ENCODING 201
SWIDTH 480 0
DWIDTH 10 0
BBX 14 20 0 -4
BITMAP
0000
0380
0700
0E00
0000
3FC0
3800
3800
7000
7000
7F00
7000
7000
E000
E000
FF80
0000
0000
0000
0000
ENDCHAR
STARTCHAR Ecircumflex
ENCODING 202
SWIDTH 480 0
DWIDTH 10 0
BBX 14 20 0 -4
BITMAP
0000
0700
0F80
1DC0
0000
3FC0
3800
3800
7000
7000
7F00
7000
7000
E000
E000
FF80
0000
0000
0000
0000
ENDCHAR
STARTCHAR Edieresis
ENCODING 203
SWIDTH 480 0
DWIDTH 10 0
BBX 14 20 0 -4
BITMAP
0000
1DC0
1DC0
0000
0000
3FC0
3800
3800
7000
7000
7F00
7000
7000
E000
E000
FF80
0000
0000
0000
0000
ENDCHAR
STARTCHAR Igrave
ENCODING 204
SWIDTH 480 0
DWIDTH 10 0
BBX 14 20 0 -4
BITMAP
0000
0E00
0700
0380
0000
1FC0
0700
0700
0E00
0E00
0E00
0E00
0E00
1C00
1C00
7F00
0000
0000
0000
0000
ENDCHAR
STARTCHAR Iacute
ENCODING 205
SWIDTH 480 0
DWIDTH 10 0
BBX 14 20 0 -4
BITMAP
0000
01C0
0380
0700
0000
1FC0
0700
0700
0E00
0E00
0E00
0E00
0E00
1C00
1C00
7F00
0000
0000
0000
0000
ENDCHAR
STARTCHAR Icircumflex
ENCODING 206
SWIDTH 480 0
DWIDTH 10 0
BBX 14 20 0 -4
BITMAP
0000
0700
0F80
1DC0
0000
1FC0
0700
0700
0E00
0E00
0E00
0E00
0E00
1C00
1C00
7F00
0000
0000
0000
0000
ENDCHAR
STARTCHAR Idieresis
ENCODING 207
SWIDTH 480 0
DWIDTH 10 0
BBX 14 20 0 -4
BITMAP
0000
1DC0
1DC0
0000
1FC0
0700
0700
0700
0E00
0E00
0E00
0E00
1C00
1C00
1C00
7F00
0000
0000
0000
0000
ENDCHAR
STARTCHAR Eth
ENCODING 208
SWIDTH 480 0
DWIDTH 10 0
BBX 14 20 0 -4
BITMAP
0000
0000
0000
3F00
3B80
39C0
39C0
7380
7380
FB80
7380
7380
E700
E700
EE00
FC00
0000
0000
0000
0000
ENDCHAR
STARTCHAR Ntilde
ENCODING 209
SWIDTH 480 0
DWIDTH 10 0
BBX 14 20 0 -4
BITMAP
0000
0EC0
1FC0
1B80
0000
39C0
3DC0
3DC0
7F80
7F80
7F80
7F80
EF00
EF00
E700
E700
0000
0000
0000
0000
ENDCHAR
STARTCHAR Ograve
ENCODING 210
SWIDTH 480 0
DWIDTH 10 0
BBX 14 20 0 -4
BITMAP
0000
0E00
0700
0380
0000
0F00
1F80
39C0
71C0
71C0
7380
E380
E380
E700
7E00
3C00
0000
0000
0000
0000
ENDCHAR
STARTCHAR Oacute
ENCODING 211
SWIDTH 480 0
DWIDTH 10 0
BBX 14 20 0 -4
BITMAP
0000
0380
0700
0E00
0000
0F00
1F80
39C0
71C0
71C0
7380
E380
E380
E700
7E00
3C00
0000
0000
0000
0000
ENDCHAR
STARTCHAR Ocircumflex
ENCODING 212
SWIDTH 480 0
DWIDTH 10 0
BBX 14 20 0 -4
BITMAP
0000
0700
0F80
1DC0
0000
0F00
1F80
39C0
71C0
71C0
7380
E380
E380
E700
7E00
3C00
0000
0000
0000
0000
ENDCHAR
STARTCHAR Otilde
ENCODING 213
SWIDTH 480 0
DWIDTH 10 0
BBX 14 20 0 -4
BITMAP
0000
0EC0
1FC0
1B80
0000
0F00
1F80
39C0
71C0
71C0
7380
E380
E380
E700
7E00
3C00
0000
0000
0000
0000
ENDCHAR
STARTCHAR Odieresis
ENCODING 214
SWIDTH 480 0
DWIDTH 10 0
BBX 14 20 0 -4
BITMAP
0000
1DC0
1DC0
0000
0F00
1F80
39C0
39C0
7380
7380
7380
7380
E700
E700
7E00
3C00
0000
0000
0000
0000
ENDCHAR
STARTCHAR multiply
ENCODING 215
SWIDTH 480 0
DWIDTH 10 0
BBX 14 20 0 -4
BITMAP
0000
0000
0000
0000
0000
0000
0000
0000
30C0
39C0
1F80
0F00
1E00
3F00
7380
6180
0000
0000
0000
0000
ENDCHAR
STARTCHAR Oslash
ENCODING 216
SWIDTH 480 0
DWIDTH 10 0
BBX 14 20 0 -4
BITMAP
0000
0000
00C0
1F80
3B80
7380
7780
E780
EF80
EF80
FB80
FB80
F700
F700
EE00
7C00
C000
0000
0000
0000
ENDCHAR
STARTCHAR Ugrave
ENCODING 217
SWIDTH 480 0
DWIDTH 10 0
BBX 14 20 0 -4
BITMAP
0000
0E00
0700
0380
0000
39C0
39C0
39C0
7380
7380
7380
7380
E700
E700
7E00
3C00
0000
0000
0000
0000
ENDCHAR
STARTCHAR Uacute
ENCODING 218
SWIDTH 480 0
DWIDTH 10 0
BBX 14 20 0 -4
BITMAP
0000
0380
0700
0E00
0000
39C0
39C0
39C0
7380
7380
7380
7380
E700
E700
7E00
3C00
0000
0000
0000
0000
ENDCHAR
STARTCHAR Ucircumflex
ENCODING 219
SWIDTH 480 0
DWIDTH 10 0
BBX 14 20 0 -4
BITMAP
0000
0700
0F80
1DC0
0000
39C0
39C0
39C0
7380
7380
7380
7380
E700
E700
7E00
3C00
0000
0000
0000
0000
ENDCHAR
STARTCHAR Udieresis
ENCODING 220
SWIDTH 480 0
DWIDTH 10 0
BBX 14 20 0 -4
BITMAP
0000
1DC0
1DC0
0000
39C0
39C0
39C0
39C0
7380
7380
7380
7380
E700
E700
7E00
3C00
0000
0000
0000
0000
ENDCHAR
STARTCHAR Yacute
ENCODING 221
SWIDTH 480 0
DWIDTH 10 0
BBX 14 20 0 -4
BITMAP
0000
0380
0700
0E00
0000
71C0
71C0
7380
7700
3E00
3E00
1C00
3800
3800
3800
3800
0000
0000
0000
0000
ENDCHAR
STARTCHAR Thorn
ENCODING 222
SWIDTH 480 0
DWIDTH 10 0
BBX 14 20 0 -4
BITMAP
0000
0000
0000
3800
3800
3800
3F00
7380
7380
7380
7380
7700
FE00
E000
E000
E000
0000
0000
0000
0000
ENDCHAR
STARTCHAR germandbls
ENCODING 223
SWIDTH 480 0
DWIDTH 10 0
BBX 14 20 0 -4
BITMAP
0000
0000
0000
0F00
1F80
39C0
39C0
7380
FF00
7E00
7700
7700
E700
E700
EE00
FC00
0000
0000
0000
0000
ENDCHAR
STARTCHAR agrave
ENCODING 224
SWIDTH 480 0
DWIDTH 10 0
BBX 14 20 0 -4
BITMAP
0000
0000
0000
0000
0E00
0700
0380
0000
3F80
71C0
01C0
3FC0
E380
E380
E380
7F80
0000
0000
0000
0000
ENDCHAR
STARTCHAR aacute
ENCODING 225
SWIDTH 480 0
DWIDTH 10 0
BBX 14 20 0 -4
BITMAP
0000
0000
0000
0000
0380
0700
0E00
0000
3F80
71C0
01C0
3FC0
E380
E380
E380
7F80
0000
0000
0000
0000
ENDCHAR
STARTCHAR acircumflex
ENCODING 226
SWIDTH 480 0
DWIDTH 10 0
BBX 14 20 0 -4
BITMAP
0000
0000
0000
0000
0700
0F80
1DC0
0000
3F80
71C0
01C0
3FC0
E380
E380
E380
7F80
0000
0000
0000
0000
ENDCHAR
STARTCHAR atilde
ENCODING 227
SWIDTH 480 0
DWIDTH 10 0
BBX 14 20 0 -4
BITMAP
0000
0000
0000
0000
0EC0
1FC0
1B80
0000
3F80
71C0
01C0
3FC0
E380
E380
E380
7F80
0000
0000
0000
0000
ENDCHAR
STARTCHAR adieresis
ENCODING 228
SWIDTH 480 0
DWIDTH 10 0
BBX 14 20 0 -4
BITMAP
0000
0000
0000
0000
0000
1DC0
1DC0
0000
3F80
71C0
01C0
3FC0
E380
E380
E380
7F80
0000
0000
0000
0000
ENDCHAR
STARTCHAR aring
ENCODING 229
SWIDTH 480 0
DWIDTH 10 0
BBX 14 20 0 -4
BITMAP
0000
0000
0000
0F80
1DC0
1DC0
0F80
0000
3F80
71C0
01C0
3FC0
E380
E380
E380
7F80
0000
0000
0000
0000
ENDCHAR
STARTCHAR ae
ENCODING 230
SWIDTH 480 0
DWIDTH 10 0
BBX 14 20 0 -4
BITMAP
0000
0000
0000
0000
0000
0000
0000
0000
3F80
6EC0
0EC0
0F80
7C00
DC00
DD80
7F00
0000
0000
0000
0000
ENDCHAR
STARTCHAR ccedilla
ENCODING 231
SWIDTH 480 0
DWIDTH 10 0
BBX 14 20 0 -4
BITMAP
0000
0000
0000
0000
0000
0000
0000
0000
1F80
39C0
7000
7000
E000
E000
7380
3F00
3800
1C00
FC00
7800
ENDCHAR
STARTCHAR egrave
ENCODING 232
SWIDTH 480 0
DWIDTH 10 0
BBX 14 20 0 -4
BITMAP
0000
0000
0000
0000
1C00
0E00
0700
0000
1F00
3B80
71C0
7FC0
E000
E000
7380
3F00
0000
0000
0000
0000
ENDCHAR
STARTCHAR eacute
ENCODING 233
SWIDTH 480 0
DWIDTH 10 0
BBX 14 20 0 -4
BITMAP
0000
0000
0000
0000
01C0
0380
0700
0000
1F00
3B80
71C0
7FC0
E000
E000
7380
3F00
0000
0000
0000
0000
ENDCHAR
STARTCHAR ecircumflex
ENCODING 234
SWIDTH 480 0
DWIDTH 10 0
BBX 14 20 0 -4
BITMAP
0000
0000
0000
0000
0700
0F80
1DC0
0000
1F00
3B80
71C0
7FC0
E000
E000
7380
3F00
0000
0000
0000
0000
ENDCHAR
STARTCHAR edieresis
ENCODING 235
SWIDTH 480 0
DWIDTH 10 0
BBX 14 20 0 -4
BITMAP
0000
0000
0000
0000
0000
1DC0
1DC0
0000
1F00
3B80
71C0
7FC0
E000
E000
7380
3F00
0000
0000
0000
0000
ENDCHAR
STARTCHAR igrave
ENCODING 236
SWIDTH 480 0
DWIDTH 10 0
BBX 14 20 0 -4
BITMAP
0000
0000
0000
0000
1C00
0E00
0700
0000
3E00
0E00
0E00
0E00
1C00
1C00
1C00
FF80
0000
0000
0000
0000
ENDCHAR
STARTCHAR iacute
ENCODING 237
SWIDTH 480 0
DWIDTH 10 0
BBX 14 20 0 -4
BITMAP
0000
0000
0000
0000
0380
0700
0E00
0000
3E00
0E00
0E00
0E00
1C00
1C00
1C00
FF80
0000
0000
0000
0000
ENDCHAR
STARTCHAR icircumflex
ENCODING 238
SWIDTH 480 0
DWIDTH 10 0
BBX 14 20 0 -4
BITMAP
0000
0000
0000
0000
0700
0F80
1DC0
0000
3E00
0E00
0E00
0E00
1C00
1C00
1C00
FF80
0000
0000
0000
0000
ENDCHAR
STARTCHAR idieresis
ENCODING 239
SWIDTH 480 0
DWIDTH 10 0
BBX 14 20 0 -4
BITMAP
0000
0000
0000
0000
0000
1DC0
1DC0
0000
3E00
0E00
0E00
0E00
1C00
1C00
1C00
FF80
0000
0000
0000
0000
ENDCHAR
STARTCHAR eth
ENCODING 240
SWIDTH 480 0
DWIDTH 10 0
BBX 14 20 0 -4
BITMAP
0000
0000
0000
3300
3F00
1E00
1E00
3F00
6700
1F80
3BC0
71C0
E380
E380
7700
3E00
0000
0000
0000
0000
ENDCHAR
STARTCHAR ntilde
ENCODING 241
SWIDTH 480 0
DWIDTH 10 0
BBX 14 20 0 -4
BITMAP
0000
0000
0000
0000
0EC0
1FC0
1B80
0000
7F00
7B80
71C0
71C0
E380
E380
E380
E380
0000
0000
0000
0000
ENDCHAR
STARTCHAR ograve
ENCODING 242
SWIDTH 480 0
DWIDTH 10 0
BBX 14 20 0 -4
BITMAP
0000
0000
0000
0000
1C00
0E00
0700
0000
1F00
3B80
71C0
71C0
E380
E380
7700
3E00
0000
0000
0000
0000
ENDCHAR
STARTCHAR oacute
ENCODING 243
SWIDTH 480 0
DWIDTH 10 0
BBX 14 20 0 -4
BITMAP
0000
0000
0000
0000
01C0
0380
0700
0000
1F00
3B80
71C0
71C0
E380
E380
7700
3E00
0000
0000
0000
0000
ENDCHAR
STARTCHAR ocircumflex
ENCODING 244
SWIDTH 480 0
DWIDTH 10 0
BBX 14 20 0 -4
BITMAP
0000
0000
0000
0000
0700
0F80
1DC0
0000
1F00
3B80
71C0
71C0
E380
E380
7700
3E00
0000
0000
0000
0000
ENDCHAR
STARTCHAR otilde
ENCODING 245
SWIDTH 480 0
DWIDTH 10 0
BBX 14 20 0 -4
BITMAP
0000
0000
0000
0000
0EC0
1FC0
1B80
0000
1F00
3B80
71C0
71C0
E380
E380
7700
3E00
0000
0000
0000
0000
ENDCHAR
STARTCHAR odieresis
ENCODING 246
SWIDTH 480 0
DWIDTH 10 0
BBX 14 20 0 -4
BITMAP
0000
0000
0000
0000
0000
1DC0
1DC0
0000
1F00
3B80
71C0
71C0
E380
E380
7700
3E00
0000
0000
0000
0000
ENDCHAR
STARTCHAR divide
ENCODING 247
SWIDTH 480 0
DWIDTH 10 0
BBX 14 20 0 -4
BITMAP
0000
0000
0000
0000
0000
0200
0700
0200
0000
7FC0
7FC0
0000
0800
1C00
0800
0000
0000
0000
0000
0000
ENDCHAR
STARTCHAR oslash
ENCODING 248
SWIDTH 480 0
DWIDTH 10 0
BBX 14 20 0 -4
BITMAP
0000
0000
0000
0000
0000
0000
0000
00C0
1F80
3B80
77C0
77C0
FB80
FB80
7700
7E00
C000
0000
0000
0000
ENDCHAR
STARTCHAR ugrave
ENCODING 249
SWIDTH 480 0
DWIDTH 10 0
BBX 14 20 0 -4
BITMAP
0000
0000
0000
0000
0E00
0700
0380
0000
71C0
71C0
71C0
71C0
E380
E380
7780
3F80
0000
0000
0000
0000
ENDCHAR
STARTCHAR uacute
ENCODING 250
SWIDTH 480 0
DWIDTH 10 0
BBX 14 20 0 -4
BITMAP
0000
0000
0000
0000
01C0
0380
0700
0000
71C0
71C0
71C0
71C0
E380
E380
7780
3F80
0000
0000
0000
0000
ENDCHAR
STARTCHAR ucircumflex
ENCODING 251
SWIDTH 480 0
DWIDTH 10 0
BBX 14 20 0 -4
BITMAP
0000
0000
0000
0000
0700
0F80
1DC0
0000
71C0
71C0
71C0
71C0
E380
E380
7780
3F80
0000
0000
0000
0000
ENDCHAR
STARTCHAR udieresis
ENCODING 252
SWIDTH 480 0
DWIDTH 10 0
BBX 14 20 0 -4
BITMAP
0000
0000
0000
0000
0000
1DC0
1DC0
0000
71C0
71C0
71C0
71C0
E380
E380
7780
3F80
0000
0000
0000
0000
ENDCHAR
STARTCHAR yacute
ENCODING 253
SWIDTH 480 0
DWIDTH 10 0
BBX 14 20 0 -4
BITMAP
0000
0000
0000
0000
0380
0700
0E00
0000
71C0
71C0
71C0
71C0
E380
E380
7780
3F80
0700
E700
7E00
3C00
ENDCHAR
STARTCHAR thorn
ENCODING 254
SWIDTH 480 0
DWIDTH 10 0
BBX 14 20 0 -4
BITMAP
0000
0000
0000
1C00
1C00
1C00
1C00
1C00
3800
3F00
3B80
39C0
71C0
7380
7700
7E00
E000
E000
E000
E000
ENDCHAR
STARTCHAR ydieresis
ENCODING 255
SWIDTH 480 0
DWIDTH 10 0
BBX 14 20 0 -4
BITMAP
0000
0000
0000
0000
0000
1DC0
1DC0
0000
71C0
71C0
71C0
71C0
E380
E380
7780
3F80
0700
E700
7E00
3C00
ENDCHAR
ENDFONT
